<?xml version="1.0" encoding="UTF-8"?>
<!DOCTYPE svg PUBLIC "-//W3C//DTD SVG 1.1//EN" "http://www.w3.org/Graphics/SVG/1.1/DTD/svg11.dtd">
<!-- Creator: CorelDRAW -->
<svg xmlns="http://www.w3.org/2000/svg" xml:space="preserve" width="36.454mm" height="13.955mm" version="1.1" style="shape-rendering:geometricPrecision; text-rendering:geometricPrecision; image-rendering:optimizeQuality; fill-rule:evenodd; clip-rule:evenodd"
viewBox="0 0 3645.4 1395.5"
 xmlns:xlink="http://www.w3.org/1999/xlink"
 xmlns:xodm="http://www.corel.com/coreldraw/odm/2003">
 <defs>
  <style type="text/css">
   <![CDATA[
    .fil2 {fill:#3C3C3C}
    .fil1 {fill:#51BDD0}
    .fil3 {fill:#58B7B7}
    .fil4 {fill:#5E5E5E}
    .fil0 {fill:#61AB4C}
   ]]>
  </style>
 </defs>
 <g id="Layer_x0020_1">
  <metadata id="CorelCorpID_0Corel-Layer"/>
  <g id="_2137040814400">
   <path class="fil0" d="M84.12 899.57c-6.02,-12.06 -6.18,-7 -9.57,-21.91l-3.74 -12.68c-1.24,-4.51 -1.8,-8.97 -2.85,-13.57 -10.2,-44.88 -14.6,-138.74 1.74,-176.34 4.22,-9.73 1.7,1.4 4.81,-11.11l7.53 -25.73c1.17,-4.23 2.69,-7.81 4.25,-12.27l9.86 -23.49c13.55,-39.69 5.94,-17.65 18.42,-40.62 1.88,-3.46 0.9,-1.55 2.12,-5.63 4.03,-13.39 0.18,-4.09 7.72,-13.8l18.06 -28.06c0.21,-0.36 0.47,-0.82 0.67,-1.19 11.42,-20.91 10.37,-11.19 10.9,-19.36 0.01,-0.15 0.02,-0.65 0.05,-0.81 0.89,-4.5 19.05,-22.76 24.45,-31.24 -2.46,-2.76 4.68,-3.84 -4.38,-1.66 -12.4,7.55 -24.53,25.83 -34.47,37.02l-24.8 28.48c-3.6,4.04 -4.93,5.98 -8.3,10.09 -16.27,19.85 -30.3,40.88 -43.75,62.83 -5.12,8.36 -8.37,15.39 -13.28,23.47 -4.77,7.84 -7.36,14.75 -12.15,22.75 -6.13,10.23 -7.54,12.67 -11.44,25.32l-17.41 54.25c-18.52,62.93 -18.72,127.24 -10.51,194.71 5.13,42.14 20.59,100.01 41.89,136.36l12.34 24.41c20.46,34.18 35.26,53.51 66.49,76.84 30.32,22.65 57.21,34.57 102.37,42.79 20.33,3.7 45.31,3.63 68.85,2.94 30.54,-0.89 88.62,-14.61 118.69,-24.64 18.72,-6.25 35.84,-12.26 52.43,-19.24 40.6,-17.09 82.83,-33.88 119.52,-58.71l23.9 -12.86c30.8,-17.93 59.18,-36.28 87.05,-58.12 19.37,-15.17 41.88,-29.96 59.1,-47.47l124.02 -129.57c2.76,-3.36 4.65,-5.95 7.17,-9.36 3.5,-4.72 4.66,-5.63 8.38,-10 17.11,-20.11 29.24,-43.9 46.5,-63.75 -2.22,26.68 -33.3,80.25 -45.93,104.75l-28.3 47.04c-5.66,8.45 -10.1,15.22 -15.81,22.77 -18.92,25.03 -37.38,50.31 -59.3,73.01 -4.15,4.3 -4.53,5.91 -8.25,10.13 -25.86,29.37 -69.73,67.62 -100.46,90.65 -47.56,35.65 -110.18,76.46 -165.37,99.24 -10.48,4.32 -16.51,7.97 -26.52,12.06 -64.89,26.55 -131.01,49.88 -199.46,66.99 -9.61,2.4 -23.27,4.62 -30.5,8.09 9.12,12.44 62.48,38.79 80.59,46.2 92.49,37.84 166.82,53.26 272.07,43.68 82.68,-7.53 171.39,-43.47 234.25,-85.48 12.4,-8.3 25.74,-15.76 37.31,-25.17 35.73,-29.08 69.19,-58.86 98.37,-94.58 39.31,-48.13 72.07,-102.69 94.36,-161.06 18.03,-47.23 31.77,-99.28 40.41,-150.69 9.27,-55.2 14.76,-122.87 8.4,-179.57 -1.14,-10.19 0.19,-19.54 -1.32,-29.91 -1.44,-9.81 -2.07,-20.99 -2.69,-30.4 -1.23,-18.96 -4.88,-37.17 -8.07,-56.24 -10.59,-63.35 -24.46,-120.45 -44.25,-179.93 -3.57,-10.75 -4.65,-14.86 -10.09,-22.99 -9.63,6.46 -10.97,19.99 -15.98,31.8 -14.36,33.9 -47.08,91.49 -74.49,116.61l-49.63 45.93c-26.15,26.46 -82.96,59.47 -115.61,75.5 -11.29,5.55 -21.05,9.59 -32.18,15.59l-22.38 12.53c-2.93,1.54 -5.42,2.45 -8.83,4.04 -38.59,18.03 -80.58,30.26 -118.21,49.01 -5.87,2.93 -10.3,4.12 -17.12,6.77 -69.13,26.94 -125.83,55.23 -184.8,101.85 -5.83,4.61 -7.27,6.09 -12.61,11.28 -4.96,4.82 -7.9,5.98 -12.93,10.96 -40.51,40.08 -66.36,71.07 -96.36,118.64 -3.3,5.24 -5.27,10.04 -8.48,15.41 -3.55,5.94 -4.45,9.94 -8.01,15.88 -12.18,20.35 -21.94,42.99 -29.8,65.75 -2.78,8.05 -3.05,12.36 -6.62,19.1 -4.37,-2.09 -9.51,-3.74 -14.46,-5.74 -29.53,-11.98 -57.11,-30.28 -77.15,-55.17 -4,-4.97 -6.18,-5.92 -10.23,-11.81 -16.36,-23.77 -43.71,-71.7 -51.44,-102.91 -1.6,-6.47 -2.06,-12.43 -4.75,-18.68z"/>
   <path class="fil1" d="M572.91 533.43c-52.01,0 -102.19,-29.22 -122.36,-77.94 -24.55,-59.29 -14.77,-113.25 30,-157.76 25.34,-25.2 49.19,-49.13 74.45,-74.39 25.23,-25.24 47.28,-51.13 73.47,-75.36 4.23,-3.92 5.95,-4.3 10.15,-8.24 4.07,-3.81 5.22,-5.45 9.59,-8.78 53.19,-40.42 106.07,-45.25 162.53,-6.25 9.61,6.64 20.31,17.5 26.8,26.49l20.19 34.93c6.91,15.43 6.6,23.95 8.03,45.06 1.02,15.05 -2.42,32.79 -6.81,46.19 -8.52,25.97 -37.25,57.73 -56.8,77.34l-88.19 88.22c-3.37,3.85 -3.05,4.59 -6.51,8.19 -1.99,2.07 -0.72,0.6 -2.89,2.63 -0.28,0.25 -0.69,0.6 -0.97,0.86 -0.27,0.27 -0.67,0.63 -0.94,0.9l-7.98 8.56c-34.87,35.09 -67.32,69.35 -121.76,69.35zm-101.06 77.17c3.88,0.59 1.8,-0.48 3.67,1.93 0,0 10.41,-0.55 -0.37,12.12 -9.3,10.94 -27.84,27.73 -30.46,34.51l-25.32 23.97c10.79,3.89 8.72,1.42 10.95,7.1 -4.77,1.39 -3.63,1.9 -7.43,4.9l5.71 2.6c9.91,6.09 1.3,3.62 9,5.93l0.03 10.99 13.48 1.05c-0.55,7.63 -2.8,4.56 -9.82,11.46 -0.27,0.27 -0.63,0.69 -0.9,0.96 -6.82,6.76 -4.58,2.31 -6.42,6.46 13.84,-4.69 15.84,-3.22 21.9,-7.01 10.11,-6.33 9.76,-8.92 13.88,-9.55 4.96,-0.77 -0.4,0.54 3.94,1.01 13.92,-21.13 9.27,-5.6 33.3,-16.89l131.01 -56.22c68.95,-26.44 131.71,-55.12 195.53,-92.68l57.62 -45.34c4.18,-4.78 -0.14,-1.31 5.33,-5.4 2.78,-2.08 5.13,-3.29 7.19,-4.59 -0.25,-9.87 -13.16,-23.29 -22.79,-37.25 -4.93,-7.14 -8.07,-11.27 -13.38,-17.85 -2.64,-3.27 -3.75,-5.15 -6.58,-8.12 -12.11,-12.71 -9.33,-11.8 18.4,-39.54l26.64 -28.49c74.38,-74.79 63.2,-238.28 -50.67,-299.37 -22.19,-11.91 -54.74,-24.17 -87.52,-24.57 -38.03,-0.46 -67.56,5.58 -91.99,18.42 -11.62,6.11 -23.97,13.54 -35,20.12 -6.37,3.8 -10.26,6.82 -15.99,11.58 -9.43,7.82 -11.39,10.99 -17.16,8.76 0.8,7.81 0.82,1.79 -2.33,4.18 -25.62,-37.85 -10.52,-14.04 -33.92,-58.11l-16.03 -37.02c-15.7,27.6 -11.06,33.61 -37.2,74.6 -13.53,21.21 -19.05,32.36 -35.02,55.1l-39.08 51.06c-3.58,4.39 -6.33,6.2 -10.4,11.55 -12.56,16.52 -7.79,6.19 -21.09,25 -4.31,6.08 -5.41,7.95 -9.59,12.38 -3.94,4.18 -7,6.79 -10.95,11.14l-33.19 34.83c-17.35,14.42 -6.66,4.32 -16.63,16.4l-50.27 50.85c-5.64,6.09 -6.77,3.31 -13.03,10.91 -16.78,20.35 -22.71,18.65 -26.47,27.77 -3.97,9.62 -4.23,6.65 -6.73,8.66 -4.63,3.72 -3.49,-1.41 -5.62,7.57 1.89,1.37 3.47,3.46 10.45,4.42 -2.68,6.98 -6.94,0.82 -2.87,9.88 3.34,7.44 5.39,2.57 5.66,13.45 7.02,-7.47 8.5,-2.55 8.79,-2.23 7.3,8.08 -6.14,2.24 2.41,10.84 2.21,2.23 8.2,2.96 12.58,2.91 12.94,-0.13 5.52,-0.93 12.56,-4.13 -0.87,6.29 -2.64,8.5 -3.83,14.96 15.04,0.31 12.24,15.2 24.24,1.23l6.41 -6.3c2.3,-1.66 0.45,0.28 3.35,-2.19 4.43,-3.78 2.8,-4.27 5.77,-7.24l31.26 -25.49c6.61,15.69 5.11,5.41 7.64,30.19 3.07,30.1 12.59,51.18 27.33,76.84 21.54,37.48 59.41,67 86.59,80.13 -3.45,4.74 -0.28,3.05 -6.57,4.86z"/>
   <path class="fil2" d="M1936.38 597.74c31.44,0 63.74,17.03 77.22,34.88 8.41,11.14 15.39,21.12 20.69,36.26 32.21,91.99 -31.49,186.21 -121.87,164.14 -94.54,-23.08 -105.85,-164.23 -40.13,-213 14.69,-10.91 39.02,-22.28 64.09,-22.28zm-192.94 -196.62l0 499.82c0,4.23 1.28,5.51 5.51,5.51 110.5,0 71.18,11.34 84.53,-45.94 14.75,9.89 21.18,22.84 47.26,35.43 44.1,21.3 108.63,21.9 151.22,-0.48 10.42,-5.48 18.64,-11.6 27.57,-18.37 4.82,-3.66 6.71,-6.36 11.77,-10.29 27.91,-21.66 50.02,-71.49 55.69,-106.01 10.42,-63.39 -3.11,-130.58 -41.48,-178.04 -27.09,-33.51 -76.92,-58.51 -123.4,-58.51 -29.93,0 -61.25,2.32 -86.32,16.59 -6.88,3.92 -18.49,10.73 -24.38,16.04 -2.01,1.81 -2.63,2.76 -4.65,4.54l-16.96 16.12 0.04 -163.58c0.32,-24.36 9.92,-18.34 -80.89,-18.34 -4.23,0 -5.51,1.28 -5.51,5.51z"/>
   <path class="fil2" d="M2368.21 597.74c15.96,0 35.15,4.88 46.59,10.38 12.39,5.95 24.41,14.46 32.87,24.09 15.21,17.31 22.69,34.11 27.33,57.2 10.3,51.34 -9.21,112.16 -55.91,135.62 -54.32,27.3 -116.18,3.62 -141.59,-48.38 -5.61,-11.49 -7.25,-18.69 -10.4,-31.86 -5.4,-22.57 -3.25,-53.26 3.96,-73.31 11.69,-32.52 30.15,-52.67 60.38,-66.41 6.48,-2.94 27.49,-7.33 36.77,-7.33zm-191.11 110.26c0,32.71 2.36,63.77 14.73,91.85 4.4,9.97 8.52,20.61 14.29,29.81 46.72,74.43 129.39,99.78 208.74,71.99 27.51,-9.63 34.81,-22.76 45.22,-22.76 7,0 14.25,4.55 16.41,9.32 9.92,21.93 -25.34,18.24 82.82,18.24 4.24,0 5.52,-1.28 5.52,-5.51l0 -365.68c0,-4.23 -1.28,-5.51 -5.52,-5.51l-75.34 0c-14.25,0 4.38,31.24 -14.7,31.24 -7.63,0 -13.02,-6.22 -22.41,-12.5 -55.11,-36.89 -147.94,-31.17 -198.68,10.08 -16.12,13.11 -31.13,28.45 -41.62,46.58 -16.72,28.91 -29.46,66.75 -29.46,102.85z"/>
   <path class="fil2" d="M2917.64 560.99l-1.84 23.89c0,0.03 -0.62,267.46 1.57,286.93 1.44,12.83 -1.61,26.61 0.27,34.64 25.89,0 64.36,3.29 86.36,-1.83l0.4 -115.37c0.98,-7.07 10.51,-34.44 24.64,-16.25 3.07,3.95 4.2,5.4 7.24,9.3l96.24 118.75c2.97,3.57 4.66,5.4 11.14,5.4 22.09,0 81.57,2.28 99.23,-1.83 -0.95,-11.33 -27.76,-35.74 -38.58,-49.63l-71.19 -83.17c-19.29,-19.18 -18.12,-22.73 -30.33,-35.82 -4.38,-4.71 -6.69,-6.44 -10.59,-11.46 -3.9,-5.01 -7.56,-6.78 -9.18,-12.87l79.55 -89.5c6.68,-7.97 14.23,-13.11 20.74,-21.53 4.23,-5.48 5.12,-5.99 9.52,-10.69l20.11 -22.15c7.8,-9.34 27.16,-26.7 28.11,-38.05 -28.77,0 -57.62,0.22 -86.38,-0.01 -27.59,-0.23 -21.62,5.65 -50.98,37.23l-19.3 22.96c-9.56,10.28 -53.26,64.43 -62.01,70.29 -9.44,-4.53 -15.7,-4.7 -16.59,-18.33 -0.8,-12.18 -1.82,-19.35 -1.79,-33.12 0.09,-41.19 2.68,-193.78 -1.84,-213.16 -20.81,0 -41.66,0.12 -62.48,-0.01 -14.24,-0.08 -21.71,-4.16 -22.28,8.96l0.24 156.43z"/>
   <path class="fil2" d="M1379.6 730.05c0,-38.02 2.13,-72.73 29.82,-100.65 9.38,-9.45 18.15,-16.86 30.81,-22.48 20.62,-9.17 44.71,-11.07 66.62,-5.96 18.16,4.22 40.3,15.8 51.02,29.83 8.26,10.81 14.73,18.4 20.75,32.54 15.66,36.75 11.38,91.22 -8.64,124.79 -31.76,53.25 -110.64,66.54 -159.63,17.75 -10.03,-9.99 -14.59,-18.72 -20.97,-32.31 -4.62,-9.83 -9.78,-29.86 -9.78,-43.51zm-86.37 -20.22c0,45.2 7.05,84.77 29.01,119.84 31.62,50.52 94.84,82.3 156.59,82.3 51.39,0 77.49,-8.21 116.84,-32 6.16,-3.72 8.4,-5.89 13.16,-10.74 5.11,-5.21 8.41,-6.46 12.91,-10.97 84.16,-84.15 72.52,-260.89 -52.89,-317.46 -68.88,-31.08 -172.18,-18.75 -223.73,37.16 -15.48,16.8 -27.46,34 -36.15,55.73 -8.91,22.27 -15.74,46.03 -15.74,76.14z"/>
   <path class="fil2" d="M3290.66 535.26l0 202.14c0,25.24 2.2,52.58 8.08,72.77 6.17,21.18 14.55,37.86 29.11,53.58 11.91,12.87 30.94,26.87 47.93,34.77 45.54,21.17 119.94,17.54 159.54,-15.69 4.97,-4.17 4.22,-5.87 10.76,-7.62 3.31,2.88 2.65,0.52 4.53,4.66 4.07,8.93 -4.57,26.58 6.5,26.58 89.31,0 81.1,6.55 80.86,-22.03 -0.27,-33.36 1.31,-158 -1.09,-177.77 -1.36,-11.26 1.08,-16.65 1.08,-28.05 0,-27.29 -1.82,-49.87 -1.84,-75.35 -0.01,-14.93 1.83,-23.9 1.92,-36.7 0.09,-14.76 -1.92,-21.9 -1.92,-36.8 -99.9,0 -84.52,-9.97 -84.52,42.27 0,34.67 2.24,179.29 -2.28,198.02 -20.05,83.13 -119.48,80.83 -153.7,35.13 -16.75,-22.38 -18.59,-44.29 -18.59,-82.47l0 -150.68c0,-52.04 10.74,-42.27 -80.86,-42.27 -4.23,0 -5.51,1.28 -5.51,5.51z"/>
   <path class="fil1" d="M475.52 397.45c0,27.38 12.02,53.54 26.17,67.55 22.68,22.46 42.36,29.84 74.9,29.84 47.6,0 91.88,-52.71 120.8,-85 39.67,-44.3 49.07,-95.77 21.92,-149.6 -24.26,-48.09 -41.25,-50.1 0.2,-76.35 37.99,-24.06 70.13,-6.19 83.1,-5.11 -1.42,-17.06 -60.82,-63.23 -119.83,-26.11 -14.05,8.84 -23.6,17.83 -34.97,29.34 -14.37,14.54 -30.45,27.32 -48.4,47.16 -5.87,6.49 -9.24,11.46 -16.25,16.82 -9.55,7.3 -8.5,9.91 -19.14,19.45l-44.86 45.18c-12.22,12.22 -19.94,20.1 -29.06,35.25 -8.38,13.92 -14.58,34.08 -14.58,51.58z"/>
   <path class="fil2" d="M2673.24 437.87l0 91.88c-26.97,0 -47.78,-4.19 -47.78,5.51 0,74.47 -5.74,64.62 22.07,64.3 11.7,-0.13 16.33,1.86 25.71,1.86l0 200.29c0,18.76 2.26,30.96 7.09,44.36 2.19,6.05 5.04,11.9 8.35,17.38 6.61,10.98 14.16,19.57 25.03,26.42 35.21,22.2 90.57,16.58 134.1,16.58 4.23,0 5.51,-1.28 5.51,-5.51 0,-100.11 9.02,-59.16 -62.05,-68.42 -21.94,-2.85 -29.83,-12.83 -29.83,-38.16l0 -192.94 84.53 0c4.24,0 5.51,-1.28 5.51,-5.52l0 -60.64c0,-4.23 -1.27,-5.51 -5.51,-5.51l-84.53 0 0 -69.83c0,-12.22 -1.83,-15.9 -1.83,-27.56 -15.1,-3.51 -57.81,-2.74 -74.17,-0.66 -6.56,0.84 -12.2,-0.96 -12.2,6.17z"/>
   <path class="fil3" d="M174.16 460.1c9.06,-2.18 1.92,-1.1 4.38,1.66 -5.4,8.48 -23.56,26.74 -24.45,31.24 -0.03,0.16 -0.04,0.66 -0.05,0.81 -0.53,8.17 0.52,-1.55 -10.9,19.36 -0.2,0.37 -0.46,0.83 -0.67,1.19l-18.06 28.06c-7.54,9.71 -3.69,0.41 -7.72,13.8 -1.22,4.08 -0.24,2.17 -2.12,5.63 -12.48,22.97 -4.87,0.93 -18.42,40.62l-9.86 23.49c-1.56,4.46 -3.08,8.04 -4.25,12.27l-7.53 25.73c-3.11,12.51 -0.59,1.38 -4.81,11.11 -16.34,37.6 -11.94,131.46 -1.74,176.34 1.05,4.6 1.61,9.06 2.85,13.57l3.74 12.68c3.39,14.91 3.55,9.85 9.57,21.91 0,-14.49 -1.85,-24.62 -1.84,-40.89 0.02,-25.45 -1.73,-59.2 4.87,-83.34 11.3,-41.37 14.73,-59.69 36.81,-99.17 33.41,-59.73 123.87,-141.99 171.02,-189.14l32.23 -33.92c20.38,-17.06 17.55,-9.71 28.98,12.22 18.88,36.25 23.91,60.25 52.61,94.39 16.56,19.69 27.32,28.28 49.8,42.06 5.9,3.62 8.24,3.21 13.25,8.82 6.29,-1.81 3.12,-0.12 6.57,-4.86 -27.18,-13.13 -65.05,-42.65 -86.59,-80.13 -14.74,-25.66 -24.26,-46.74 -27.33,-76.84 -2.53,-24.78 -1.03,-14.5 -7.64,-30.19l-31.26 25.49c-2.97,2.97 -1.34,3.46 -5.77,7.24 -2.9,2.47 -1.05,0.53 -3.35,2.19l-6.41 6.3c-12,13.97 -9.2,-0.92 -24.24,-1.23 1.19,-6.46 2.96,-8.67 3.83,-14.96 -7.04,3.2 0.38,4 -12.56,4.13 -4.38,0.05 -10.37,-0.68 -12.58,-2.91 -8.55,-8.6 4.89,-2.76 -2.41,-10.84 -0.29,-0.32 -1.77,-5.24 -8.79,2.23 -0.27,-10.88 -2.32,-6.01 -5.66,-13.45 -4.07,-9.06 0.19,-2.9 2.87,-9.88 -6.98,-0.96 -8.56,-3.05 -10.45,-4.42 2.13,-8.98 0.99,-3.85 5.62,-7.57 2.5,-2.01 2.76,0.96 6.73,-8.66 3.76,-9.12 9.69,-7.42 26.47,-27.77 6.26,-7.6 7.39,-4.82 13.03,-10.91l50.27 -50.85c9.97,-12.08 -0.72,-1.98 16.63,-16.4l33.19 -34.83c3.95,-4.35 7.01,-6.96 10.95,-11.14 4.18,-4.43 5.28,-6.3 9.59,-12.38 13.3,-18.81 8.53,-8.48 21.09,-25 4.07,-5.35 6.82,-7.16 10.4,-11.55l39.08 -51.06c15.97,-22.74 21.49,-33.89 35.02,-55.1 26.14,-40.99 21.5,-47 37.2,-74.6l16.03 37.02c23.4,44.07 8.3,20.26 33.92,58.11 3.15,-2.39 3.13,3.63 2.33,-4.18 -24.45,-40.71 -30.26,-49.97 -46.18,-91.44 -2.43,-6.33 -2.67,-8.97 -10.59,-9.63 -3.63,15.6 -22.08,57.48 -30.87,72.04l-40.04 64.69c-22.57,32.68 -56.99,69.73 -82.15,99.78 -23.6,28.19 -115.33,116.64 -144.13,144.37 -5.23,5.03 -8.48,6.49 -13.84,11.88 -15.54,15.61 -56.1,51.65 -65.67,66.81z"/>
   <path class="fil3" d="M475.52 612.53c-4.8,9.34 -52.12,54.2 -69.38,73.86 -12.67,14.43 -11.87,7.94 -25.9,25.55 -2.98,3.75 -5.51,5.91 -9,9.38 -60.76,60.41 -95.96,115.17 -178.21,100.12 -13.42,-2.46 -25.91,-8.83 -36.83,-16.47 -4.65,-3.26 -5.79,-4.93 -13.28,-5.1 -0.2,9.16 -3.18,21.83 -3.68,31.23 -1.8,33.65 3.71,65.05 13.56,94.88 6.21,18.8 37.12,80.99 61.79,81.54 4.35,-8.23 6.94,-16.83 11.42,-25.33 2.62,-4.96 3.2,-7.61 5.71,-12.66l19.59 -35.54c10.68,-16.08 19.09,-25 30.68,-44.66 4.69,-7.96 10.05,-15.95 15.82,-22.77 5.46,-6.45 12.19,-12.35 18.3,-18.45 3.35,-3.34 6.12,-5.73 9.18,-9.2 17.64,-20.03 24.3,-27.81 48.11,-45.6 51.8,-38.7 27.98,-22.88 90.3,-60.38 39.65,-23.87 57.19,-31.14 99.5,-49.35 32.65,-14.06 43.27,-19.73 78.76,-33.33l130.05 -57.38c28.64,-13.61 44.8,-24.81 70.29,-41.8 17.23,-11.49 57.06,-34.4 61.37,-53.16 -2.06,1.3 -4.41,2.51 -7.19,4.59 -5.47,4.09 -1.15,0.62 -5.33,5.4l-57.62 45.34c-63.82,37.56 -126.58,66.24 -195.53,92.68l-131.01 56.22c-24.03,11.29 -19.38,-4.24 -33.3,16.89 -4.34,-0.47 1.02,-1.78 -3.94,-1.01 -4.12,0.63 -3.77,3.22 -13.88,9.55 -6.06,3.79 -8.06,2.32 -21.9,7.01 1.84,-4.15 -0.4,0.3 6.42,-6.46 0.27,-0.27 0.63,-0.69 0.9,-0.96 7.02,-6.9 9.27,-3.83 9.82,-11.46l-13.48 -1.05 -0.03 -10.99c-7.7,-2.31 0.91,0.16 -9,-5.93l-5.71 -2.6c3.8,-3 2.66,-3.51 7.43,-4.9 -2.23,-5.68 -0.16,-3.21 -10.95,-7.1l25.32 -23.97c2.62,-6.78 21.16,-23.57 30.46,-34.51 10.78,-12.67 0.37,-12.12 0.37,-12.12z"/>
   <path class="fil4" d="M3452.37 1106.75c0,-52.19 43.58,-51.41 58.13,-32.41 12.2,15.92 16.8,67.32 -28.73,67.32 -14.26,0 -29.4,-19.77 -29.4,-34.91zm-25.73 -12.87c0,20.56 0.18,38.15 14.2,53.79 15.33,17.1 40.77,23.2 61.86,13.08 9.24,-4.43 8.94,-7.13 15.82,-11.74l0 14.7c18.98,0 27.56,2.65 27.56,-5.51l0 -112.09c0,-7.68 -6.37,-5.52 -22.05,-5.52 -7.14,0 -5.51,6.09 -5.51,12.87 -11.56,-3.09 -11.14,-14.7 -38.59,-14.7 -27.92,0 -53.29,27.1 -53.29,55.12z"/>
   <path class="fil4" d="M2404.96 1101.23c0,-17.71 12.53,-38.58 29.4,-38.58 13.15,0 21.12,-0.46 30.83,13.27 29.29,41.41 -25.47,90.99 -51.89,51.89 -3.95,-5.85 -8.34,-18.01 -8.34,-26.58zm-25.73 -9.18l0 18.37c0,38.01 44.7,67.95 77.84,50.28 6.23,-3.32 9.76,-8.22 15.88,-9.85 -3.47,14.5 -4.61,12.86 20.21,12.86 4.23,0 5.51,-1.28 5.51,-5.51l0 -112.09c0,-7.68 -6.37,-5.52 -22.05,-5.52 -7.48,0 -3.67,3.97 -3.67,12.87 -8.17,-2.18 -38.73,-35.4 -77.67,3.18 -7.97,7.89 -16.05,20.2 -16.05,35.41z"/>
   <path class="fil4" d="M2772.47 1141.66c-22.69,0 -36.75,-18.85 -36.75,-31.24l0 -12.86c0,-15.98 14.04,-34.91 29.4,-34.91l7.35 0c38.92,0 39.31,79.01 0,79.01zm-12.86 23.89c10.81,0 17.98,0.12 28.16,-4.92 6.56,-3.25 8.15,-7.63 14.1,-11.62l0 14.7 25.73 0 0 -123.12c-29.84,0 -25.73,-2.23 -25.73,14.71 -18.91,-12.67 -11.27,-16.54 -44.1,-16.54 -19.91,0 -39.95,22.21 -45.8,38.73 -13.67,38.57 11.2,88.06 47.64,88.06z"/>
   <path class="fil4" d="M3042.59 1046.11c0,23.62 4.48,38.06 35.66,47.03 9.48,2.73 19.08,4.66 26.85,8.06 31.09,13.6 10.56,40.46 -3.71,40.46 -9.86,0 -18.74,1.22 -26.11,-6.96 -4.21,-4.66 -5.38,-10.12 -6.96,-16.93 -9.06,0 -19.57,-1.12 -25.73,1.84 -5.48,5.49 4.33,45.94 55.13,45.94 53.33,0 72.58,-69.38 14.96,-88.46 -16.75,-5.55 -44.36,-7.09 -44.36,-29.14 0,-22.1 33.99,-22.28 43.63,-12.4 3.53,3.62 4.74,8.9 5.98,14.23l27.56 0c0,-59.14 -102.9,-56.62 -102.9,-3.67z"/>
   <path class="fil4" d="M1300.58 1049.78c0,40.61 36.91,41.43 60.17,50.09 4.94,1.84 8.57,2.89 12.05,6.33 14.98,14.83 1.9,35.46 -13.41,35.46 -38.07,0 -25.34,-23.89 -34.92,-23.89 -3.37,0 -7.2,0.98 -8.05,1.03 -11.23,0.72 2.18,-3.39 -15.84,0.81 0,46.03 67.32,64.38 97.74,24.23 9.16,-12.1 10.8,-31.14 2.64,-45.59 -19.79,-34.98 -72.81,-12.77 -72.81,-53.98 0,-4.09 4.94,-9.71 8.45,-11.77 13.85,-8.12 34.23,-4.59 39.32,17.28l27.57 0c0,-14.34 -2.85,-23.38 -16.48,-33.13 -31.8,-22.74 -86.43,-9.24 -86.43,33.13z"/>
   <path class="fil4" d="M3252.07 1088.37c-1.64,0.68 -56.39,5.39 -59.64,-0.7 -4.17,-7.8 24.55,-44.13 52.47,-16.01 4.11,4.14 6.55,9.27 7.17,16.71zm-88.2 14.7c0,32.87 23.63,62.48 51.45,62.48 16.8,0 30.08,0.37 43.69,-13.28 7.01,-7.03 16.67,-14.48 16.95,-27.15l-22.05 0c-13.18,0 -1.81,16.54 -36.75,16.54 -13.82,0 -25.4,-14.96 -25.73,-29.4l82.69 0c12.09,0 5.36,-38.72 -10.51,-55.64 -0.87,-0.93 -2.05,-2.32 -2.6,-2.92 -18.96,-20.61 -61.76,-21.41 -82.76,4.95 -8.25,10.36 -14.38,26.41 -14.38,44.42z"/>
   <path class="fil4" d="M2120.14 1090.21c10.32,-44.3 58.05,-32.89 60.64,-1.84 -6.79,2.8 -44.18,1.84 -60.64,1.84zm-27.57 9.19c0,73.79 80.01,84.88 107.71,39.68 9.94,-16.22 7.38,-13.96 -17.67,-13.96 -7.92,0 -10.63,20.93 -35.48,17.15 -15.37,-2.34 -26.62,-13.42 -26.99,-30.01l82.69 0c12.99,0 4.62,-43.17 -15.92,-61.26 -32.8,-28.9 -94.34,-7.01 -94.34,48.4z"/>
   <path class="fil4" d="M3299.85 1007.52l0 150.68c0,8.86 17.32,5.51 25.73,5.51 4,-17.18 -7.63,-78.18 9.7,-95.04 9.71,-9.46 27.75,-9.3 36.79,0.76 11.97,13.31 8.77,47.73 8.63,72.24 -0.15,25.07 -4.63,22.04 25.73,22.04 0,-27.46 3.83,-72.42 -4.32,-96.75 -7.29,-21.77 -24.17,-28.2 -47.13,-28.2 -17.07,0 -19.31,10.16 -29.4,12.86 0,-19.74 2.61,-42.06 0,-53.29l-23.89 0c-0.96,4.12 -1.84,4.23 -1.84,9.19z"/>
   <path class="fil4" d="M2024.58 1079.18l-23.88 0 0 -47.77c27.83,0 53.28,-5.68 53.28,23.89 0,18.28 -11.33,23.88 -29.4,23.88zm-49.61 -66.15l0 145.17c0,7.5 5.76,5.51 20.21,5.51 7.09,0 5.73,-5.85 5.67,-12.7 -0.04,-6.18 -0.15,-12.34 -0.15,-18.54 -0.02,-48.26 -1.43,-25.95 33.78,-30.39 25.46,-3.21 47.07,-13.38 47.07,-46.78 0,-13.97 -6.53,-27.98 -17.56,-35.74 -23.18,-16.3 -49.63,-12.04 -83.51,-12.04 -4.23,0 -5.51,1.28 -5.51,5.51z"/>
   <path class="fil4" d="M1449.43 1101.23c0,-19.77 12.17,-38.37 31.48,-39.33 44.16,-2.2 49.74,79.76 -2.08,79.76 -17.61,0 -29.4,-19.5 -29.4,-40.43zm-25.73 -3.67c0,20.13 1.5,34.97 16.03,50.12 38.66,40.32 101.58,6.68 101.58,-35.42 0,-23.41 0.78,-38.58 -16.95,-56.56l-10.87 -9.34c-37.37,-21.73 -89.79,2.91 -89.79,51.2z"/>
   <path class="fil4" d="M2882.72 1051.62c0,-12.91 1.47,-11.03 -22.05,-11.03 -4.23,0 -5.51,1.28 -5.51,5.52l0 112.09c0,7.67 6.38,5.51 22.05,5.51 8.97,0 5.52,-18.98 5.51,-27.56 0,-11.03 0.04,-22.06 0,-33.08 -0.05,-12.22 -0.74,-20.77 4.38,-28.7 10.37,-16.03 36,-16.03 46.37,0 12.11,18.72 -4.31,89.34 9.89,89.34 27.05,0 20.22,10.94 20.22,-71.66 0,-32.4 -16.52,-53.29 -49.62,-53.29 -18.02,0 -20.91,5.94 -31.24,12.86z"/>
   <path class="fil4" d="M1616.65 1046.11l0 69.83c0,27.59 19.27,49.61 51.45,49.61 13.91,0 21.02,-7.25 29.4,-12.86 2.66,5.74 0.24,3.49 1.84,11.02 8.4,0 25.72,3.35 25.72,-5.51l0 -112.09c0,-8.01 -7.79,-5.52 -25.72,-5.52l0 66.16c0,43.24 -42.83,41.13 -52.13,22.72 -7.4,-14.63 1.4,-62.08 -4.84,-88.88 -8.41,0 -25.72,-3.34 -25.72,5.52z"/>
   <path class="fil4" d="M2551.96 1051.62l0 -11.03 -25.72 0 0 123.12 25.72 0 0 -71.66c0,-32.59 38.63,-38.93 51.45,-16.54 4.54,7.92 3.71,17.09 3.68,29.4 -0.02,10.41 0.01,20.83 0,31.24 -0.02,30.85 -5.6,27.56 25.73,27.56l0 -80.85c0,-20.65 -19.85,-44.1 -40.43,-44.1 -27.69,0 -22.89,1.12 -40.43,12.86z"/>
   <path class="fil4" d="M1748.95 1073.67c0,45.87 55.55,28.15 69.83,55.13 -3.1,5.84 -5.7,14.7 -22.05,14.7 -4.76,0 -14.01,-3.59 -16.59,-5.46 -15.11,-10.93 11.6,-12.92 -33.03,-12.92 0,8.4 -0.04,11.23 3.38,16.84 23.88,39.17 92.18,25.22 92.18,-7.65 0,-18.15 -1.15,-29.86 -28.68,-39.32 -20.02,-6.88 -39.31,-6.91 -39.31,-23.16 0,-12.21 38.14,-20.05 40.42,7.35l25.73 0c4.2,-4.02 -6.86,-40.42 -42.27,-40.42l-11.02 0c-18.54,0 -38.59,16.08 -38.59,34.91z"/>
   <path class="fil4" d="M3577.32 1014.87l0 23.89c-16.88,0 -14.7,3.59 -14.7,18.37 0,6.96 4.29,5.52 14.7,5.52l0 69.82c0,33.22 29.52,31.24 49.62,31.24 7.32,0 5.51,-5.2 5.51,-18.37 0,-12.77 -27.57,1.68 -27.57,-12.87l0 -69.82c31.59,0 27.57,3.5 27.57,-16.54 0,-8.17 -8.58,-5.52 -27.57,-5.52 0,-36.78 4.94,-31.23 -22.05,-31.23 -4.23,0 -5.51,1.27 -5.51,5.51z"/>
   <path class="fil4" d="M2313.08 1038.76c-10.96,0 -13.66,-1.08 -14.37,9.35 -1.09,15.98 -1.05,14.54 14.37,14.54l0 71.66c0,31.59 29.71,29.4 49.61,29.4 7.33,0 5.52,-5.2 5.52,-18.37 0,-8.54 -14.66,-5.52 -23.89,-5.52 -2.54,-3.78 -5.51,-4.77 -5.51,-9.18l0 -67.99c27.45,0 34.07,5.87 27.56,-22.06 -12.82,-2.98 -12.21,-1.83 -27.56,-1.83 0,-35.15 5.48,-29.4 -25.73,-29.4l0 29.4z"/>
   <path class="fil4" d="M1563.36 1163.71l25.72 0 0 -159.87c0,-4.23 -1.28,-5.51 -5.51,-5.51l-20.21 0 0 165.38z"/>
   <path class="fil4" d="M2254.28 1053.46l0 -12.87c-17.94,0 -25.73,-2.49 -25.73,5.52l0 112.09c0,8 7.79,5.51 25.73,5.51l0 -66.15c0,-23.71 11.06,-31.24 34.91,-31.24l0 -27.56c-26.63,0 -22.37,11.35 -34.91,14.7z"/>
   <path class="fil4" d="M2660.38 1046.11l0 112.09c0,7.67 6.38,5.51 22.05,5.51 4.23,0 5.51,-1.28 5.51,-5.51l0 -112.09c0,-7.68 -6.37,-5.52 -22.05,-5.52 -4.23,0 -5.51,1.28 -5.51,5.52z"/>
   <path class="fil4" d="M1866.55 1163.71c17.94,0 25.73,2.49 25.73,-5.51l0 -112.09c0,-8.01 -7.79,-5.52 -25.73,-5.52l0 123.12z"/>
   <path class="fil4" d="M1862.88 1007.52c0,29.23 31.24,18.05 31.24,7.35 0,-13.18 2,-22.05 -20.22,-22.05 -5.75,0 -11.02,10.12 -11.02,14.7z"/>
   <path class="fil4" d="M2658.54 1007.52c0,25.17 31.24,25.17 31.24,0 0,-19.04 -31.24,-20.53 -31.24,0z"/>
  </g>
 </g>
</svg>
