<?xml version="1.0" encoding="UTF-8"?>
<!DOCTYPE svg PUBLIC "-//W3C//DTD SVG 1.1//EN" "http://www.w3.org/Graphics/SVG/1.1/DTD/svg11.dtd">
<!-- Creator: CorelDRAW -->
<svg xmlns="http://www.w3.org/2000/svg" xml:space="preserve" width="8.467mm" height="8.467mm" version="1.1" style="shape-rendering:geometricPrecision; text-rendering:geometricPrecision; image-rendering:optimizeQuality; fill-rule:evenodd; clip-rule:evenodd"
viewBox="0 0 846.7 846.7"
 xmlns:xlink="http://www.w3.org/1999/xlink"
 xmlns:xodm="http://www.corel.com/coreldraw/odm/2003">
 <defs>
  <style type="text/css">
   <![CDATA[
    .fil1 {fill:#FEFEFE}
    .fil0 {fill:#111112;fill-rule:nonzero}
   ]]>
  </style>
 </defs>
 <g id="Layer_x0020_1">
  <metadata id="CorelCorpID_0Corel-Layer"/>
  <g id="_2137035461216">
   <path class="fil0" d="M0.02 158.77c0,-87.68 71.07,-158.75 158.75,-158.75l529.16 0c87.68,0 158.75,71.07 158.75,158.75l0 687.91 -687.91 0c-87.68,0 -158.75,-71.07 -158.75,-158.75l0 -529.16z"/>
   <g>
    <path class="fil1" d="M194.35 520.4c-2.9,-5.81 -2.98,-3.37 -4.61,-10.56l-1.81 -6.11c-0.59,-2.18 -0.87,-4.33 -1.37,-6.55 -4.92,-21.63 -7.04,-66.89 0.83,-85.02 2.04,-4.68 0.83,0.68 2.33,-5.35l3.63 -12.4c0.56,-2.04 1.29,-3.77 2.05,-5.92l4.75 -11.33c6.53,-19.13 2.86,-8.51 8.88,-19.58 0.91,-1.67 0.43,-0.75 1.02,-2.71 1.95,-6.46 0.09,-1.98 3.72,-6.66l8.71 -13.53c0.1,-0.17 0.23,-0.39 0.33,-0.57 5.5,-10.08 5,-5.4 5.25,-9.33 0.01,-0.08 0.01,-0.32 0.03,-0.39 0.42,-2.18 9.18,-10.98 11.78,-15.07 -1.18,-1.33 2.26,-1.85 -2.11,-0.8 -5.98,3.64 -11.83,12.46 -16.62,17.85l-11.96 13.73c-1.73,1.95 -2.37,2.89 -4,4.86 -7.84,9.58 -14.6,19.72 -21.09,30.3 -2.47,4.03 -4.03,7.42 -6.4,11.31 -2.3,3.78 -3.55,7.11 -5.86,10.97 -2.96,4.93 -3.64,6.11 -5.51,12.21l-8.4 26.16c-8.93,30.34 -9.03,61.34 -5.07,93.87 2.48,20.32 9.93,48.22 20.2,65.74l5.95 11.77c9.86,16.48 17,25.8 32.05,37.05 14.62,10.92 27.59,16.66 49.36,20.63 9.8,1.78 21.85,1.75 33.19,1.42 14.73,-0.43 42.73,-7.05 57.23,-11.88 9.03,-3.02 17.28,-5.91 25.27,-9.28 19.58,-8.24 39.94,-16.34 57.63,-28.31l11.52 -6.19c14.85,-8.65 28.53,-17.5 41.97,-28.02 9.34,-7.32 20.19,-14.45 28.5,-22.89l59.79 -62.47c1.33,-1.62 2.24,-2.87 3.46,-4.52 1.68,-2.27 2.25,-2.71 4.04,-4.82 8.24,-9.69 14.09,-21.16 22.41,-30.73 -1.07,12.86 -16.05,38.69 -22.14,50.5l-13.64 22.68c-2.73,4.08 -4.87,7.34 -7.63,10.98 -9.12,12.07 -18.01,24.25 -28.59,35.2 -2,2.07 -2.18,2.85 -3.97,4.88 -12.47,14.16 -33.62,32.6 -48.43,43.71 -22.94,17.19 -53.13,36.86 -79.73,47.84 -5.06,2.09 -7.97,3.84 -12.79,5.82 -31.29,12.8 -63.17,24.05 -96.17,32.3 -4.63,1.15 -11.22,2.22 -14.7,3.89 4.39,6 30.12,18.71 38.85,22.28 44.59,18.25 80.43,25.68 131.17,21.06 39.87,-3.63 82.64,-20.96 112.94,-41.21 5.98,-4 12.41,-7.6 17.99,-12.14 17.23,-14.02 33.36,-28.37 47.43,-45.6 18.95,-23.2 34.74,-49.51 45.49,-77.65 8.7,-22.77 15.32,-47.86 19.48,-72.65 4.47,-26.61 7.12,-59.24 4.05,-86.58 -0.55,-4.91 0.1,-9.42 -0.63,-14.42 -0.7,-4.73 -1,-10.12 -1.3,-14.65 -0.59,-9.14 -2.35,-17.93 -3.89,-27.12 -5.11,-30.54 -11.79,-58.07 -21.33,-86.75 -1.73,-5.18 -2.25,-7.16 -4.87,-11.08 -4.64,3.11 -5.29,9.64 -7.7,15.33 -6.92,16.34 -22.7,44.11 -35.92,56.22l-23.92 22.15c-12.61,12.75 -40,28.66 -55.74,36.4 -5.45,2.67 -10.15,4.62 -15.52,7.51l-10.79 6.04c-1.41,0.75 -2.61,1.19 -4.25,1.95 -18.61,8.69 -38.85,14.59 -57,23.63 -2.83,1.41 -4.97,1.99 -8.25,3.26 -33.33,12.99 -60.67,26.63 -89.1,49.11 -2.81,2.22 -3.5,2.94 -6.08,5.44 -2.39,2.32 -3.81,2.88 -6.23,5.28 -19.54,19.33 -32,34.27 -46.46,57.2 -1.59,2.53 -2.54,4.84 -4.09,7.43 -1.71,2.86 -2.15,4.79 -3.86,7.66 -5.87,9.81 -10.58,20.72 -14.37,31.7 -1.34,3.88 -1.47,5.96 -3.19,9.21 -2.11,-1.01 -4.59,-1.81 -6.97,-2.77 -14.24,-5.78 -27.54,-14.6 -37.2,-26.6 -1.93,-2.4 -2.98,-2.86 -4.93,-5.7 -7.89,-11.46 -21.07,-34.57 -24.8,-49.61 -0.77,-3.12 -0.99,-5.99 -2.29,-9.01z"/>
    <path class="fil1" d="M430.01 343.88c-25.08,0 -49.27,-14.09 -58.99,-37.58 -11.84,-28.59 -7.13,-54.6 14.46,-76.06 12.22,-12.15 23.71,-23.69 35.89,-35.87 12.17,-12.16 22.8,-24.65 35.43,-36.33 2.04,-1.89 2.86,-2.07 4.89,-3.97 1.96,-1.84 2.51,-2.63 4.62,-4.23 25.65,-19.49 51.14,-21.82 78.36,-3.02 4.63,3.2 9.79,8.44 12.92,12.77l9.74 16.84c3.33,7.44 3.18,11.55 3.87,21.73 0.49,7.25 -1.17,15.81 -3.29,22.27 -4.1,12.52 -17.95,27.83 -27.38,37.29l-42.52 42.53c-1.62,1.85 -1.47,2.21 -3.14,3.95 -0.96,1 -0.34,0.29 -1.39,1.26 -0.13,0.13 -0.33,0.3 -0.47,0.42 -0.13,0.13 -0.32,0.31 -0.45,0.43l-3.85 4.13c-16.81,16.92 -32.46,33.44 -58.7,33.44zm-48.73 37.2c1.88,0.29 0.87,-0.23 1.77,0.93 0,0 5.02,-0.26 -0.17,5.85 -4.49,5.27 -13.43,13.36 -14.69,16.63l-12.21 11.56c5.21,1.88 4.21,0.69 5.28,3.42 -2.3,0.68 -1.75,0.92 -3.58,2.37l2.75 1.25c4.78,2.93 0.63,1.74 4.34,2.86l0.02 5.3 6.49 0.5c-0.26,3.68 -1.34,2.2 -4.73,5.53 -0.13,0.13 -0.3,0.33 -0.43,0.46 -3.29,3.26 -2.21,1.12 -3.1,3.12 6.68,-2.27 7.64,-1.56 10.56,-3.38 4.88,-3.06 4.71,-4.3 6.69,-4.61 2.39,-0.37 -0.19,0.26 1.9,0.49 6.71,-10.19 4.47,-2.7 16.05,-8.14l63.17 -27.11c33.24,-12.75 63.5,-26.58 94.27,-44.68l27.78 -21.86c2.01,-2.31 -0.07,-0.63 2.57,-2.61 1.34,-1 2.47,-1.58 3.47,-2.21 -0.12,-4.76 -6.35,-11.23 -10.99,-17.96 -2.38,-3.44 -3.89,-5.43 -6.45,-8.61 -1.27,-1.57 -1.81,-2.48 -3.17,-3.91 -5.84,-6.13 -4.5,-5.69 8.87,-19.06l12.84 -13.74c35.86,-36.06 30.47,-114.88 -24.43,-144.33 -10.7,-5.74 -26.39,-11.65 -42.2,-11.85 -18.33,-0.22 -32.57,2.69 -44.34,8.88 -5.61,2.95 -11.56,6.53 -16.88,9.7 -3.07,1.83 -4.95,3.29 -7.71,5.58 -4.55,3.78 -5.49,5.3 -8.27,4.23 0.38,3.76 0.39,0.86 -1.12,2.01 -12.36,-18.25 -5.08,-6.76 -16.36,-28.01l-7.73 -17.85c-7.57,13.31 -5.33,16.2 -17.93,35.97 -6.52,10.22 -9.19,15.6 -16.89,26.56l-18.84 24.62c-1.73,2.11 -3.05,2.99 -5.01,5.57 -6.06,7.96 -3.76,2.98 -10.17,12.05 -2.08,2.93 -2.61,3.84 -4.62,5.97 -1.91,2.01 -3.38,3.27 -5.28,5.37l-16.01 16.79c-8.36,6.95 -3.21,2.08 -8.01,7.91l-24.24 24.51c-2.72,2.94 -3.27,1.6 -6.28,5.26 -8.09,9.82 -10.95,9 -12.76,13.39 -1.92,4.64 -2.05,3.21 -3.25,4.18 -2.23,1.79 -1.68,-0.68 -2.71,3.65 0.91,0.66 1.68,1.67 5.04,2.13 -1.29,3.36 -3.34,0.39 -1.38,4.76 1.61,3.59 2.6,1.25 2.73,6.49 3.38,-3.6 4.09,-1.23 4.23,-1.07 3.52,3.89 -2.96,1.07 1.16,5.22 1.07,1.07 3.96,1.43 6.07,1.4 6.24,-0.06 2.66,-0.45 6.05,-1.99 -0.42,3.04 -1.27,4.1 -1.84,7.21 7.25,0.15 5.9,7.33 11.68,0.6l3.09 -3.04c1.12,-0.8 0.22,0.13 1.62,-1.06 2.14,-1.82 1.35,-2.05 2.79,-3.49l15.06 -12.29c3.19,7.57 2.47,2.61 3.69,14.56 1.48,14.51 6.07,24.68 13.18,37.05 10.38,18.07 28.64,32.3 41.74,38.63 -1.66,2.29 -0.13,1.47 -3.17,2.34z"/>
    <path class="fil1" d="M383.05 278.32c0,13.2 5.8,25.81 12.62,32.56 10.94,10.83 20.43,14.39 36.11,14.39 22.95,0 44.3,-25.41 58.25,-40.98 19.12,-21.36 23.65,-46.17 10.56,-72.13 -11.69,-23.18 -19.89,-24.15 0.1,-36.81 18.31,-11.6 33.81,-2.98 40.06,-2.46 -0.68,-8.23 -29.32,-30.48 -57.77,-12.59 -6.78,4.26 -11.38,8.6 -16.86,14.15 -6.93,7.01 -14.68,13.17 -23.33,22.73 -2.83,3.13 -4.46,5.53 -7.84,8.11 -4.6,3.52 -4.1,4.78 -9.23,9.38l-21.62 21.78c-5.9,5.9 -9.62,9.69 -14.02,17 -4.04,6.71 -7.03,16.43 -7.03,24.87z"/>
    <path class="fil1" d="M237.76 308.52c4.37,-1.05 0.93,-0.53 2.11,0.8 -2.6,4.09 -11.36,12.89 -11.78,15.07 -0.02,0.07 -0.02,0.31 -0.03,0.39 -0.25,3.93 0.25,-0.75 -5.25,9.33 -0.1,0.18 -0.23,0.4 -0.33,0.57l-8.71 13.53c-3.63,4.68 -1.77,0.2 -3.72,6.66 -0.59,1.96 -0.11,1.04 -1.02,2.71 -6.02,11.07 -2.35,0.45 -8.88,19.58l-4.75 11.33c-0.76,2.15 -1.49,3.88 -2.05,5.92l-3.63 12.4c-1.5,6.03 -0.29,0.67 -2.33,5.35 -7.87,18.13 -5.75,63.39 -0.83,85.02 0.5,2.22 0.78,4.37 1.37,6.55l1.81 6.11c1.63,7.19 1.71,4.75 4.61,10.56 0,-6.98 -0.89,-11.87 -0.89,-19.71 0.01,-12.27 -0.83,-28.55 2.35,-40.18 5.45,-19.95 7.1,-28.78 17.75,-47.82 16.1,-28.79 59.72,-68.45 82.45,-91.18l15.54 -16.36c9.83,-8.22 8.46,-4.68 13.97,5.89 9.11,17.48 11.53,29.05 25.37,45.51 7.98,9.5 13.17,13.64 24.01,20.28 2.84,1.75 3.97,1.55 6.38,4.25 3.04,-0.87 1.51,-0.05 3.17,-2.34 -13.1,-6.33 -31.36,-20.56 -41.74,-38.63 -7.11,-12.37 -11.7,-22.54 -13.18,-37.05 -1.22,-11.95 -0.5,-6.99 -3.69,-14.56l-15.06 12.29c-1.44,1.44 -0.65,1.67 -2.79,3.49 -1.4,1.19 -0.5,0.26 -1.62,1.06l-3.09 3.04c-5.78,6.73 -4.43,-0.45 -11.68,-0.6 0.57,-3.11 1.42,-4.17 1.84,-7.21 -3.39,1.54 0.19,1.93 -6.05,1.99 -2.11,0.03 -5,-0.33 -6.07,-1.4 -4.12,-4.15 2.36,-1.33 -1.16,-5.22 -0.14,-0.16 -0.85,-2.53 -4.23,1.07 -0.13,-5.24 -1.12,-2.9 -2.73,-6.49 -1.96,-4.37 0.09,-1.4 1.38,-4.76 -3.36,-0.46 -4.13,-1.47 -5.04,-2.13 1.03,-4.33 0.48,-1.86 2.71,-3.65 1.2,-0.97 1.33,0.46 3.25,-4.18 1.81,-4.39 4.67,-3.57 12.76,-13.39 3.01,-3.66 3.56,-2.32 6.28,-5.26l24.24 -24.51c4.8,-5.83 -0.35,-0.96 8.01,-7.91l16.01 -16.79c1.9,-2.1 3.37,-3.36 5.28,-5.37 2.01,-2.13 2.54,-3.04 4.62,-5.97 6.41,-9.07 4.11,-4.09 10.17,-12.05 1.96,-2.58 3.28,-3.46 5.01,-5.57l18.84 -24.62c7.7,-10.96 10.37,-16.34 16.89,-26.56 12.6,-19.77 10.36,-22.66 17.93,-35.97l7.73 17.85c11.28,21.25 4,9.76 16.36,28.01 1.51,-1.15 1.5,1.75 1.12,-2.01 -11.79,-19.63 -14.59,-24.09 -22.27,-44.09 -1.17,-3.05 -1.29,-4.32 -5.1,-4.64 -1.75,7.52 -10.65,27.72 -14.89,34.73l-19.3 31.19c-10.88,15.76 -27.48,33.62 -39.61,48.11 -11.38,13.59 -55.6,56.24 -69.48,69.6 -2.53,2.43 -4.09,3.13 -6.68,5.73 -7.49,7.53 -27.04,24.9 -31.66,32.21z"/>
    <path class="fil1" d="M383.05 382.01c-2.31,4.51 -25.12,26.13 -33.45,35.61 -6.1,6.96 -5.72,3.83 -12.48,12.32 -1.44,1.81 -2.66,2.85 -4.34,4.52 -29.3,29.13 -46.27,55.53 -85.92,48.27 -6.47,-1.18 -12.49,-4.25 -17.76,-7.94 -2.24,-1.57 -2.79,-2.37 -6.4,-2.45 -0.1,4.41 -1.53,10.52 -1.78,15.05 -0.86,16.23 1.79,31.37 6.54,45.74 3,9.07 17.9,39.05 29.79,39.32 2.1,-3.97 3.35,-8.12 5.51,-12.21 1.26,-2.4 1.54,-3.67 2.75,-6.11l9.45 -17.13c5.15,-7.76 9.2,-12.06 14.79,-21.53 2.26,-3.84 4.84,-7.69 7.63,-10.98 2.63,-3.11 5.87,-5.95 8.82,-8.9 1.61,-1.61 2.95,-2.76 4.42,-4.43 8.51,-9.66 11.72,-13.41 23.2,-21.99 24.97,-18.66 13.49,-11.03 43.54,-29.11 19.11,-11.51 27.57,-15.01 47.97,-23.79 15.74,-6.78 20.86,-9.52 37.97,-16.07l62.7 -27.66c13.81,-6.57 21.6,-11.97 33.89,-20.16 8.3,-5.54 27.51,-16.58 29.59,-25.63 -1,0.63 -2.13,1.21 -3.47,2.21 -2.64,1.98 -0.56,0.3 -2.57,2.61l-27.78 21.86c-30.77,18.1 -61.03,31.93 -94.27,44.68l-63.17 27.11c-11.58,5.44 -9.34,-2.05 -16.05,8.14 -2.09,-0.23 0.49,-0.86 -1.9,-0.49 -1.98,0.31 -1.81,1.55 -6.69,4.61 -2.92,1.82 -3.88,1.11 -10.56,3.38 0.89,-2 -0.19,0.14 3.1,-3.12 0.13,-0.13 0.3,-0.33 0.43,-0.46 3.39,-3.33 4.47,-1.85 4.73,-5.53l-6.49 -0.5 -0.02 -5.3c-3.71,-1.12 0.44,0.07 -4.34,-2.86l-2.75 -1.25c1.83,-1.45 1.28,-1.69 3.58,-2.37 -1.07,-2.73 -0.07,-1.54 -5.28,-3.42l12.21 -11.56c1.26,-3.27 10.2,-11.36 14.69,-16.63 5.19,-6.11 0.17,-5.85 0.17,-5.85z"/>
   </g>
  </g>
 </g>
</svg>
