<?xml version="1.0" encoding="UTF-8"?>
<!DOCTYPE svg PUBLIC "-//W3C//DTD SVG 1.1//EN" "http://www.w3.org/Graphics/SVG/1.1/DTD/svg11.dtd">
<!-- Creator: CorelDRAW -->
<svg xmlns="http://www.w3.org/2000/svg" xml:space="preserve" width="8.467mm" height="10.433mm" version="1.1" style="shape-rendering:geometricPrecision; text-rendering:geometricPrecision; image-rendering:optimizeQuality; fill-rule:evenodd; clip-rule:evenodd"
viewBox="0 0 846.7 1043.3"
 xmlns:xlink="http://www.w3.org/1999/xlink"
 xmlns:xodm="http://www.corel.com/coreldraw/odm/2003">
 <defs>
  <style type="text/css">
   <![CDATA[
    .fil1 {fill:#51BDD0}
    .fil2 {fill:#58B7B7}
    .fil0 {fill:#61AB4C}
   ]]>
  </style>
 </defs>
 <g id="Layer_x0020_1">
  <metadata id="CorelCorpID_0Corel-Layer"/>
  <g id="_2100451535232">
   <path class="fil0" d="M68.23 675.41c-4.5,-9.02 -4.62,-5.23 -7.15,-16.38l-2.8 -9.48c-0.93,-3.37 -1.35,-6.7 -2.13,-10.14 -7.63,-33.56 -10.92,-103.73 1.29,-131.84 3.16,-7.28 1.28,1.05 3.61,-8.31l5.62 -19.23c0.88,-3.17 2.01,-5.85 3.18,-9.18l7.37 -17.56c10.13,-29.67 4.45,-13.19 13.78,-30.37 1.4,-2.59 0.66,-1.16 1.58,-4.21 3.01,-10.01 0.13,-3.06 5.77,-10.32l13.5 -20.97c0.16,-0.28 0.36,-0.62 0.51,-0.89 8.54,-15.64 7.75,-8.37 8.15,-14.48 0.01,-0.11 0.01,-0.49 0.04,-0.6 0.65,-3.37 14.24,-17.02 18.27,-23.36 -1.84,-2.07 3.5,-2.87 -3.27,-1.25 -9.28,5.65 -18.34,19.32 -25.77,27.68l-18.55 21.3c-2.69,3.02 -3.68,4.47 -6.2,7.54 -12.17,14.84 -22.65,30.57 -32.71,46.97 -3.83,6.26 -6.26,11.51 -9.93,17.55 -3.56,5.87 -5.5,11.03 -9.09,17.01 -4.57,7.65 -5.63,9.47 -8.54,18.93l-13.02 40.56c-13.85,47.05 -14,95.13 -7.86,145.57 3.84,31.51 15.4,74.78 31.32,101.95l9.22 18.25c15.3,25.56 26.37,40.01 49.71,57.45 22.68,16.94 42.78,25.84 76.54,31.99 15.2,2.77 33.88,2.72 51.47,2.2 22.84,-0.67 66.26,-10.92 88.74,-18.42 14,-4.68 26.8,-9.17 39.2,-14.38 30.36,-12.78 61.93,-25.34 89.36,-43.9l17.87 -9.61c23.02,-13.41 44.24,-27.13 65.08,-43.45 14.48,-11.35 31.31,-22.4 44.19,-35.5l92.72 -96.87c2.06,-2.51 3.47,-4.45 5.36,-7 2.62,-3.53 3.48,-4.21 6.26,-7.47 12.79,-15.04 21.86,-32.82 34.77,-47.67 -1.66,19.95 -24.9,60.01 -34.34,78.32l-21.16 35.17c-4.23,6.32 -7.55,11.37 -11.82,17.02 -14.15,18.72 -27.94,37.61 -44.33,54.59 -3.11,3.21 -3.39,4.41 -6.17,7.57 -19.34,21.96 -52.14,50.55 -75.11,67.77 -35.56,26.66 -82.38,57.17 -123.63,74.2 -7.84,3.23 -12.35,5.95 -19.83,9.02 -48.52,19.85 -97.96,37.29 -149.13,50.08 -7.18,1.8 -17.4,3.45 -22.8,6.05 6.81,9.3 46.71,29 60.25,34.54 69.15,28.29 124.72,39.82 203.41,32.66 61.82,-5.63 128.14,-32.5 175.13,-63.91 9.28,-6.2 19.25,-11.78 27.9,-18.82 26.71,-21.74 51.73,-44 73.54,-70.71 29.4,-35.99 53.89,-76.78 70.55,-120.41 13.49,-35.32 23.75,-74.23 30.21,-112.67 6.94,-41.27 11.04,-91.86 6.28,-134.25 -0.85,-7.62 0.15,-14.61 -0.99,-22.36 -1.07,-7.34 -1.54,-15.7 -2,-22.73 -0.92,-14.17 -3.65,-27.79 -6.04,-42.05 -7.91,-47.36 -18.28,-90.05 -33.08,-134.52 -2.67,-8.04 -3.48,-11.11 -7.54,-17.19 -7.21,4.83 -8.21,14.95 -11.95,23.78 -10.73,25.34 -35.2,68.39 -55.7,87.18l-37.1 34.34c-19.55,19.78 -62.02,44.46 -86.43,56.44 -8.45,4.15 -15.74,7.18 -24.06,11.66l-16.74 9.37c-2.19,1.15 -4.05,1.83 -6.59,3.02 -28.85,13.48 -60.25,22.62 -88.38,36.64 -4.39,2.19 -7.71,3.08 -12.8,5.06 -51.69,20.14 -94.08,41.29 -138.17,76.15 -4.36,3.44 -5.43,4.55 -9.43,8.43 -3.71,3.61 -5.9,4.47 -9.66,8.2 -30.29,29.96 -49.61,53.13 -72.04,88.69 -2.47,3.92 -3.94,7.51 -6.34,11.52 -2.66,4.45 -3.33,7.44 -5.99,11.88 -9.11,15.21 -16.41,32.14 -22.28,49.16 -2.08,6.02 -2.28,9.24 -4.95,14.28 -3.27,-1.57 -7.11,-2.8 -10.82,-4.3 -22.07,-8.95 -42.69,-22.64 -57.67,-41.24 -3,-3.72 -4.62,-4.43 -7.65,-8.83 -12.23,-17.77 -32.68,-53.61 -38.46,-76.94 -1.2,-4.84 -1.54,-9.29 -3.55,-13.97z"/>
   <path class="fil1" d="M433.67 401.67c-38.89,0 -76.4,-21.84 -91.48,-58.27 -18.36,-44.33 -11.05,-84.67 22.42,-117.94 18.95,-18.84 36.78,-36.74 55.66,-55.62 18.87,-18.87 35.35,-38.23 54.94,-56.35 3.16,-2.92 4.44,-3.21 7.58,-6.15 3.05,-2.85 3.9,-4.08 7.18,-6.57 39.76,-30.22 79.3,-33.83 121.5,-4.67 7.19,4.96 15.19,13.08 20.04,19.8l15.1 26.11c5.16,11.54 4.93,17.91 6.01,33.7 0.76,11.24 -1.82,24.51 -5.1,34.53 -6.37,19.41 -27.84,43.16 -42.47,57.82l-65.93 65.96c-2.52,2.87 -2.28,3.43 -4.87,6.12 -1.49,1.55 -0.53,0.45 -2.16,1.96 -0.2,0.2 -0.52,0.46 -0.72,0.65 -0.21,0.2 -0.5,0.47 -0.71,0.67l-5.96 6.4c-26.07,26.24 -50.33,51.85 -91.03,51.85zm-75.56 57.69c2.9,0.45 1.35,-0.35 2.75,1.45 0,0 7.78,-0.41 -0.28,9.06 -6.96,8.18 -20.82,20.73 -22.77,25.8l-18.94 17.92c8.07,2.91 6.53,1.07 8.19,5.31 -3.57,1.04 -2.71,1.42 -5.56,3.67l4.28 1.94c7.4,4.55 0.97,2.7 6.72,4.43l0.03 8.22 10.07 0.78c-0.41,5.71 -2.09,3.41 -7.34,8.57 -0.2,0.2 -0.47,0.52 -0.67,0.72 -5.1,5.05 -3.43,1.73 -4.8,4.83 10.35,-3.51 11.84,-2.41 16.37,-5.24 7.57,-4.74 7.3,-6.67 10.38,-7.14 3.71,-0.57 -0.3,0.4 2.95,0.75 10.41,-15.79 6.92,-4.18 24.89,-12.62l97.95 -42.03c51.55,-19.77 98.47,-41.22 146.18,-69.3l43.08 -33.89c3.13,-3.58 -0.1,-0.98 3.99,-4.04 2.08,-1.56 3.84,-2.46 5.38,-3.43 -0.19,-7.38 -9.84,-17.42 -17.04,-27.85 -3.68,-5.34 -6.03,-8.43 -10.01,-13.35 -1.97,-2.44 -2.8,-3.85 -4.91,-6.07 -9.06,-9.5 -6.98,-8.83 13.75,-29.56l19.92 -21.3c55.61,-55.92 47.25,-178.15 -37.88,-223.82 -16.59,-8.9 -40.93,-18.07 -65.44,-18.37 -28.43,-0.34 -50.51,4.17 -68.77,13.77 -8.69,4.57 -17.93,10.12 -26.17,15.04 -4.76,2.84 -7.67,5.1 -11.96,8.66 -7.05,5.84 -8.51,8.22 -12.83,6.55 0.6,5.84 0.62,1.34 -1.73,3.12 -19.16,-28.3 -7.87,-10.49 -25.37,-43.44l-11.98 -27.68c-11.74,20.64 -8.27,25.13 -27.81,55.77 -10.12,15.86 -14.25,24.2 -26.19,41.2l-29.21 38.18c-2.68,3.27 -4.73,4.63 -7.78,8.63 -9.39,12.35 -5.82,4.63 -15.77,18.69 -3.22,4.55 -4.04,5.95 -7.17,9.26 -2.94,3.12 -5.23,5.07 -8.18,8.32l-24.82 26.04c-12.97,10.78 -4.98,3.23 -12.43,12.27l-37.59 38.01c-4.21,4.55 -5.06,2.48 -9.74,8.16 -12.54,15.21 -16.97,13.95 -19.79,20.76 -2.96,7.2 -3.16,4.97 -5.03,6.47 -3.46,2.79 -2.61,-1.05 -4.2,5.67 1.41,1.02 2.6,2.58 7.82,3.3 -2.01,5.22 -5.19,0.61 -2.15,7.39 2.49,5.56 4.03,1.92 4.23,10.05 5.25,-5.58 6.35,-1.9 6.57,-1.66 5.46,6.04 -4.59,1.67 1.8,8.1 1.66,1.67 6.14,2.21 9.41,2.18 9.67,-0.1 4.13,-0.7 9.39,-3.09 -0.65,4.7 -1.98,6.35 -2.86,11.18 11.24,0.23 9.15,11.37 18.12,0.92l4.79 -4.7c1.72,-1.25 0.33,0.2 2.5,-1.65 3.32,-2.82 2.1,-3.18 4.32,-5.41l23.37 -19.06c4.94,11.74 3.82,4.05 5.71,22.57 2.3,22.51 9.41,38.27 20.44,57.46 16.1,28.02 44.41,50.09 64.74,59.9 -2.59,3.55 -0.21,2.28 -4.92,3.63z"/>
   <path class="fil1" d="M360.86 300.01c0,20.47 8.98,40.03 19.56,50.5 16.96,16.79 31.67,22.31 56,22.31 35.59,0 68.7,-39.4 90.32,-63.55 29.65,-33.12 36.68,-71.6 16.38,-111.85 -18.14,-35.95 -30.84,-37.45 0.15,-57.08 28.4,-17.99 52.43,-4.63 62.13,-3.82 -1.06,-12.76 -45.47,-47.27 -89.59,-19.52 -10.51,6.61 -17.64,13.33 -26.15,21.94 -10.74,10.86 -22.76,20.42 -36.18,35.25 -4.39,4.86 -6.91,8.57 -12.15,12.58 -7.14,5.45 -6.35,7.41 -14.31,14.54l-33.54 33.78c-9.13,9.14 -14.91,15.03 -21.73,26.36 -6.26,10.4 -10.89,25.48 -10.89,38.56z"/>
   <path class="fil2" d="M135.55 346.84c6.77,-1.62 1.43,-0.82 3.27,1.25 -4.03,6.34 -17.62,19.99 -18.27,23.36 -0.03,0.11 -0.03,0.49 -0.04,0.6 -0.4,6.11 0.39,-1.16 -8.15,14.48 -0.15,0.27 -0.35,0.61 -0.51,0.89l-13.5 20.97c-5.64,7.26 -2.76,0.31 -5.77,10.32 -0.92,3.05 -0.18,1.62 -1.58,4.21 -9.33,17.18 -3.65,0.7 -13.78,30.37l-7.37 17.56c-1.17,3.33 -2.3,6.01 -3.18,9.18l-5.62 19.23c-2.33,9.36 -0.45,1.03 -3.61,8.31 -12.21,28.11 -8.92,98.28 -1.29,131.84 0.78,3.44 1.2,6.77 2.13,10.14l2.8 9.48c2.53,11.15 2.65,7.36 7.15,16.38 0,-10.83 -1.38,-18.4 -1.37,-30.57 0.01,-19.02 -1.3,-44.26 3.63,-62.31 8.45,-30.93 11.01,-44.63 27.52,-74.14 24.98,-44.65 92.62,-106.16 127.87,-141.41l24.1 -25.36c15.23,-12.76 13.11,-7.26 21.66,9.14 14.12,27.1 17.87,45.04 39.33,70.57 12.38,14.72 20.43,21.14 37.24,31.44 4.41,2.71 6.15,2.4 9.9,6.59 4.71,-1.35 2.33,-0.08 4.92,-3.63 -20.33,-9.81 -48.64,-31.88 -64.74,-59.9 -11.03,-19.19 -18.14,-34.95 -20.44,-57.46 -1.89,-18.52 -0.77,-10.83 -5.71,-22.57l-23.37 19.06c-2.22,2.23 -1,2.59 -4.32,5.41 -2.17,1.85 -0.78,0.4 -2.5,1.65l-4.79 4.7c-8.97,10.45 -6.88,-0.69 -18.12,-0.92 0.88,-4.83 2.21,-6.48 2.86,-11.18 -5.26,2.39 0.28,2.99 -9.39,3.09 -3.27,0.03 -7.75,-0.51 -9.41,-2.18 -6.39,-6.43 3.66,-2.06 -1.8,-8.1 -0.22,-0.24 -1.32,-3.92 -6.57,1.66 -0.2,-8.13 -1.74,-4.49 -4.23,-10.05 -3.04,-6.78 0.14,-2.17 2.15,-7.39 -5.22,-0.72 -6.41,-2.28 -7.82,-3.3 1.59,-6.72 0.74,-2.88 4.2,-5.67 1.87,-1.5 2.07,0.73 5.03,-6.47 2.82,-6.81 7.25,-5.55 19.79,-20.76 4.68,-5.68 5.53,-3.61 9.74,-8.16l37.59 -38.01c7.45,-9.04 -0.54,-1.49 12.43,-12.27l24.82 -26.04c2.95,-3.25 5.24,-5.2 8.18,-8.32 3.13,-3.31 3.95,-4.71 7.17,-9.26 9.95,-14.06 6.38,-6.34 15.77,-18.69 3.05,-4 5.1,-5.36 7.78,-8.63l29.21 -38.18c11.94,-17 16.07,-25.34 26.19,-41.2 19.54,-30.64 16.07,-35.13 27.81,-55.77l11.98 27.68c17.5,32.95 6.21,15.14 25.37,43.44 2.35,-1.78 2.33,2.72 1.73,-3.12 -18.27,-30.44 -22.62,-37.36 -34.52,-68.37 -1.82,-4.73 -2,-6.7 -7.92,-7.19 -2.71,11.66 -16.5,42.97 -23.08,53.85l-29.94 48.37c-16.87,24.43 -42.6,52.14 -61.41,74.6 -17.65,21.08 -86.22,87.21 -107.76,107.93 -3.91,3.77 -6.34,4.85 -10.35,8.88 -11.61,11.68 -41.93,38.62 -49.09,49.95z"/>
   <path class="fil2" d="M360.86 460.81c-3.59,6.98 -38.97,40.52 -51.88,55.22 -9.47,10.79 -8.87,5.93 -19.36,19.11 -2.23,2.8 -4.12,4.41 -6.73,7.01 -45.42,45.16 -71.74,86.1 -133.24,74.85 -10.03,-1.84 -19.37,-6.6 -27.53,-12.32 -3.47,-2.43 -4.33,-3.68 -9.93,-3.8 -0.15,6.84 -2.38,16.31 -2.75,23.34 -1.34,25.16 2.77,48.64 10.14,70.93 4.64,14.06 27.75,60.56 46.19,60.97 3.26,-6.16 5.19,-12.58 8.54,-18.94 1.96,-3.71 2.4,-5.68 4.27,-9.46l14.65 -26.58c7.98,-12.02 14.27,-18.69 22.94,-33.38 3.5,-5.95 7.51,-11.93 11.82,-17.03 4.08,-4.82 9.12,-9.23 13.69,-13.79 2.5,-2.5 4.57,-4.29 6.85,-6.88 13.19,-14.98 18.17,-20.79 35.98,-34.09 38.72,-28.93 20.91,-17.11 67.51,-45.15 29.65,-17.84 42.76,-23.28 74.38,-36.89 24.42,-10.51 32.36,-14.75 58.89,-24.92l97.23 -42.9c21.42,-10.17 33.49,-18.55 52.55,-31.25 12.88,-8.59 42.66,-25.72 45.89,-39.74 -1.54,0.97 -3.3,1.87 -5.38,3.43 -4.09,3.06 -0.86,0.46 -3.99,4.04l-43.08 33.89c-47.71,28.08 -94.63,49.53 -146.18,69.3l-97.95 42.03c-17.97,8.44 -14.48,-3.17 -24.89,12.62 -3.25,-0.35 0.76,-1.32 -2.95,-0.75 -3.08,0.47 -2.81,2.4 -10.38,7.14 -4.53,2.83 -6.02,1.73 -16.37,5.24 1.37,-3.1 -0.3,0.22 4.8,-4.83 0.2,-0.2 0.47,-0.52 0.67,-0.72 5.25,-5.16 6.93,-2.86 7.34,-8.57l-10.07 -0.78 -0.03 -8.22c-5.75,-1.73 0.68,0.12 -6.72,-4.43l-4.28 -1.94c2.85,-2.25 1.99,-2.63 5.56,-3.67 -1.66,-4.24 -0.12,-2.4 -8.19,-5.31l18.94 -17.92c1.95,-5.07 15.81,-17.62 22.77,-25.8 8.06,-9.47 0.28,-9.06 0.28,-9.06z"/>
  </g>
 </g>
</svg>
