<?xml version="1.0" encoding="UTF-8"?>
<!DOCTYPE svg PUBLIC "-//W3C//DTD SVG 1.1//EN" "http://www.w3.org/Graphics/SVG/1.1/DTD/svg11.dtd">
<!-- Creator: CorelDRAW -->
<svg xmlns="http://www.w3.org/2000/svg" xml:space="preserve" width="36.454mm" height="8.467mm" version="1.1" style="shape-rendering:geometricPrecision; text-rendering:geometricPrecision; image-rendering:optimizeQuality; fill-rule:evenodd; clip-rule:evenodd"
viewBox="0 0 3645.4 846.7"
 xmlns:xlink="http://www.w3.org/1999/xlink"
 xmlns:xodm="http://www.corel.com/coreldraw/odm/2003">
 <defs>
  <style type="text/css">
   <![CDATA[
    .str0 {stroke:#FEFEFE;stroke-width:20;stroke-miterlimit:22.9256}
    .fil3 {fill:none}
    .fil1 {fill:#51BDD0}
    .fil2 {fill:#58B7B7}
    .fil0 {fill:#61AB4C}
   ]]>
  </style>
 </defs>
 <g id="Layer_x0020_1">
  <metadata id="CorelCorpID_0Corel-Layer"/>
  <g id="_2100303284816">
   <g>
    <path class="fil0" d="M232.44 509.23c-2.57,-5.15 -2.63,-2.99 -4.08,-9.35l-1.6 -5.41c-0.52,-1.93 -0.77,-3.83 -1.21,-5.79 -4.36,-19.14 -6.23,-59.18 0.74,-75.23 1.8,-4.15 0.72,0.6 2.05,-4.74l3.21 -10.97c0.5,-1.81 1.15,-3.33 1.82,-5.24l4.2 -10.02c5.78,-16.93 2.54,-7.53 7.86,-17.33 0.8,-1.47 0.38,-0.66 0.91,-2.4 1.71,-5.71 0.07,-1.74 3.29,-5.88l7.7 -11.97c0.09,-0.16 0.2,-0.35 0.29,-0.51 4.87,-8.92 4.42,-4.78 4.65,-8.26 0,-0.06 0.01,-0.28 0.02,-0.35 0.38,-1.92 8.13,-9.7 10.43,-13.32 -1.05,-1.18 2,-1.64 -1.87,-0.71 -5.29,3.22 -10.46,11.02 -14.7,15.79l-10.58 12.15c-1.54,1.73 -2.11,2.55 -3.54,4.3 -6.95,8.47 -12.93,17.44 -18.67,26.81 -2.18,3.57 -3.57,6.56 -5.66,10.01 -2.04,3.35 -3.14,6.29 -5.19,9.71 -2.61,4.36 -3.21,5.4 -4.87,10.8l-7.43 23.14c-7.9,26.84 -7.99,54.28 -4.48,83.06 2.18,17.98 8.78,42.67 17.86,58.17l5.27 10.41c8.73,14.59 15.04,22.83 28.36,32.78 12.94,9.67 24.41,14.75 43.67,18.26 8.68,1.58 19.33,1.55 29.37,1.25 13.03,-0.38 37.81,-6.23 50.64,-10.51 7.98,-2.66 15.29,-5.23 22.36,-8.2 17.33,-7.3 35.34,-14.46 50.99,-25.05l10.2 -5.48c13.13,-7.66 25.24,-15.49 37.13,-24.8 8.27,-6.47 17.87,-12.78 25.22,-20.25l52.9 -55.27c1.18,-1.44 1.98,-2.55 3.06,-4 1.49,-2.01 1.99,-2.4 3.57,-4.26 7.3,-8.58 12.48,-18.73 19.84,-27.2 -0.95,11.38 -14.21,34.24 -19.59,44.69l-12.08 20.06c-2.41,3.61 -4.31,6.49 -6.74,9.72 -8.07,10.68 -15.95,21.46 -25.3,31.14 -1.77,1.84 -1.93,2.52 -3.52,4.32 -11.03,12.54 -29.74,28.85 -42.85,38.67 -20.29,15.21 -47.01,32.62 -70.55,42.34 -4.47,1.84 -7.04,3.4 -11.31,5.15 -27.68,11.32 -55.89,21.28 -85.09,28.57 -4.1,1.03 -9.93,1.97 -13.01,3.45 3.89,5.31 26.65,16.55 34.38,19.71 39.45,16.15 71.16,22.72 116.06,18.64 35.27,-3.22 73.11,-18.55 99.93,-36.47 5.29,-3.54 10.98,-6.72 15.92,-10.74 15.24,-12.4 29.51,-25.1 41.96,-40.34 16.77,-20.54 30.74,-43.81 40.25,-68.71 7.7,-20.15 13.56,-42.35 17.24,-64.29 3.96,-23.54 6.3,-52.41 3.59,-76.6 -0.49,-4.34 0.08,-8.33 -0.57,-12.76 -0.61,-4.18 -0.88,-8.95 -1.14,-12.97 -0.53,-8.08 -2.09,-15.86 -3.45,-23.99 -4.51,-27.02 -10.43,-51.38 -18.87,-76.76 -1.53,-4.58 -1.99,-6.34 -4.31,-9.8 -4.11,2.75 -4.68,8.52 -6.81,13.56 -6.13,14.46 -20.09,39.03 -31.78,49.75l-21.17 19.59c-11.16,11.29 -35.39,25.37 -49.32,32.21 -4.82,2.36 -8.98,4.09 -13.73,6.65l-9.55 5.35c-1.25,0.65 -2.31,1.04 -3.76,1.72 -16.47,7.69 -34.38,12.91 -50.43,20.91 -2.51,1.24 -4.4,1.75 -7.3,2.88 -29.5,11.5 -53.68,23.56 -78.84,43.45 -2.49,1.97 -3.1,2.6 -5.38,4.82 -2.12,2.05 -3.37,2.55 -5.52,4.67 -17.28,17.1 -28.3,30.32 -41.1,50.61 -1.41,2.24 -2.25,4.28 -3.62,6.57 -1.51,2.54 -1.9,4.25 -3.42,6.78 -5.19,8.68 -9.36,18.34 -12.71,28.05 -1.18,3.43 -1.3,5.27 -2.82,8.15 -1.87,-0.9 -4.06,-1.6 -6.17,-2.45 -12.6,-5.11 -24.37,-12.92 -32.91,-23.54 -1.71,-2.12 -2.64,-2.52 -4.37,-5.04 -6.98,-10.14 -18.65,-30.58 -21.94,-43.9 -0.69,-2.76 -0.88,-5.3 -2.03,-7.96z"/>
    <path class="fil1" d="M440.96 353.03c-22.19,0 -43.6,-12.46 -52.2,-33.25 -10.47,-25.29 -6.3,-48.31 12.8,-67.3 10.81,-10.75 20.98,-20.96 31.75,-31.73 10.77,-10.77 20.17,-21.82 31.35,-32.15 1.8,-1.67 2.54,-1.84 4.33,-3.51 1.74,-1.63 2.22,-2.33 4.09,-3.75 22.69,-17.24 45.25,-19.3 69.33,-2.67 4.1,2.83 8.67,7.47 11.44,11.3l8.61 14.9c2.95,6.59 2.82,10.22 3.43,19.23 0.43,6.41 -1.04,13.98 -2.91,19.7 -3.63,11.08 -15.89,24.63 -24.23,33l-37.62 37.63c-1.44,1.64 -1.3,1.96 -2.78,3.49 -0.85,0.89 -0.31,0.26 -1.23,1.12 -0.12,0.11 -0.3,0.26 -0.41,0.37 -0.12,0.11 -0.29,0.27 -0.41,0.38l-3.4 3.66c-14.88,14.97 -28.72,29.58 -51.94,29.58zm-43.12 32.92c1.66,0.25 0.77,-0.2 1.57,0.82 0,0 4.44,-0.23 -0.16,5.17 -3.97,4.67 -11.88,11.83 -12.99,14.73l-10.8 10.22c4.6,1.66 3.72,0.61 4.67,3.03 -2.04,0.6 -1.55,0.81 -3.17,2.09l2.43 1.11c4.23,2.6 0.56,1.54 3.84,2.53l0.02 4.69 5.75 0.44c-0.24,3.26 -1.2,1.95 -4.19,4.89 -0.12,0.12 -0.27,0.3 -0.39,0.41 -2.9,2.89 -1.95,0.99 -2.73,2.76 5.9,-2 6.75,-1.37 9.34,-2.99 4.31,-2.7 4.16,-3.81 5.92,-4.08 2.11,-0.32 -0.17,0.23 1.68,0.44 5.94,-9.02 3.95,-2.39 14.2,-7.21l55.89 -23.98c29.42,-11.28 56.19,-23.52 83.42,-39.54l24.58 -19.34c1.78,-2.04 -0.06,-0.56 2.27,-2.3 1.19,-0.89 2.19,-1.41 3.07,-1.96 -0.11,-4.21 -5.61,-9.94 -9.72,-15.89 -2.11,-3.05 -3.45,-4.81 -5.71,-7.62 -1.13,-1.39 -1.6,-2.19 -2.81,-3.46 -5.16,-5.42 -3.98,-5.04 7.85,-16.87l11.36 -12.15c31.73,-31.91 26.97,-101.65 -21.61,-127.71 -9.47,-5.08 -23.35,-10.31 -37.34,-10.48 -16.22,-0.2 -28.82,2.38 -39.24,7.85 -4.96,2.61 -10.23,5.78 -14.93,8.59 -2.72,1.62 -4.38,2.91 -6.82,4.94 -4.02,3.33 -4.86,4.68 -7.32,3.73 0.34,3.33 0.35,0.77 -0.99,1.79 -10.94,-16.15 -4.49,-5.99 -14.48,-24.79l-6.83 -15.8c-6.7,11.78 -4.72,14.34 -15.87,31.83 -5.77,9.05 -8.13,13.81 -14.94,23.5l-16.67 21.79c-1.53,1.87 -2.7,2.64 -4.44,4.93 -5.36,7.04 -3.32,2.63 -9,10.66 -1.84,2.59 -2.31,3.39 -4.09,5.28 -1.68,1.78 -2.98,2.9 -4.67,4.75l-14.16 14.86c-7.4,6.15 -2.84,1.84 -7.09,7l-21.45 21.69c-2.4,2.6 -2.89,1.41 -5.56,4.65 -7.15,8.68 -9.68,7.96 -11.29,11.85 -1.69,4.1 -1.8,2.83 -2.87,3.69 -1.97,1.59 -1.49,-0.6 -2.4,3.23 0.81,0.59 1.49,1.48 4.46,1.89 -1.14,2.98 -2.96,0.35 -1.22,4.21 1.42,3.18 2.3,1.1 2.41,5.74 3,-3.19 3.63,-1.09 3.75,-0.95 3.11,3.45 -2.62,0.96 1.03,4.62 0.94,0.95 3.5,1.27 5.37,1.25 5.51,-0.06 2.35,-0.4 5.35,-1.76 -0.37,2.68 -1.12,3.62 -1.63,6.37 6.42,0.14 5.22,6.49 10.34,0.53l2.73 -2.69c0.99,-0.71 0.2,0.12 1.43,-0.93 1.89,-1.61 1.2,-1.82 2.47,-3.09l13.33 -10.87c2.82,6.69 2.18,2.31 3.26,12.87 1.31,12.84 5.37,21.84 11.66,32.79 9.19,15.98 25.34,28.58 36.94,34.18 -1.47,2.02 -0.12,1.3 -2.81,2.07z"/>
    <path class="fil1" d="M399.41 295.02c0,11.68 5.13,22.84 11.16,28.82 9.68,9.58 18.08,12.73 31.96,12.73 20.3,0 39.19,-22.49 51.53,-36.26 16.92,-18.9 20.93,-40.86 9.35,-63.82 -10.35,-20.52 -17.6,-21.37 0.09,-32.57 16.2,-10.27 29.91,-2.64 35.44,-2.18 -0.6,-7.28 -25.94,-26.97 -51.11,-11.14 -6,3.77 -10.07,7.61 -14.92,12.52 -6.13,6.2 -12.99,11.65 -20.65,20.11 -2.5,2.77 -3.94,4.89 -6.93,7.18 -4.07,3.11 -3.63,4.23 -8.17,8.3l-19.13 19.27c-5.21,5.22 -8.51,8.58 -12.4,15.04 -3.57,5.94 -6.22,14.54 -6.22,22z"/>
    <path class="fil2" d="M270.85 321.75c3.87,-0.93 0.82,-0.47 1.87,0.71 -2.3,3.62 -10.05,11.4 -10.43,13.32 -0.01,0.07 -0.02,0.29 -0.02,0.35 -0.23,3.48 0.22,-0.66 -4.65,8.26 -0.09,0.16 -0.2,0.35 -0.29,0.51l-7.7 11.97c-3.22,4.14 -1.58,0.17 -3.29,5.88 -0.53,1.74 -0.11,0.93 -0.91,2.4 -5.32,9.8 -2.08,0.4 -7.86,17.33l-4.2 10.02c-0.67,1.91 -1.32,3.43 -1.82,5.24l-3.21 10.97c-1.33,5.34 -0.25,0.59 -2.05,4.74 -6.97,16.05 -5.1,56.09 -0.74,75.23 0.44,1.96 0.69,3.86 1.21,5.79l1.6 5.41c1.45,6.36 1.51,4.2 4.08,9.35 0,-6.18 -0.79,-10.51 -0.78,-17.45 0,-10.85 -0.74,-25.26 2.07,-35.55 4.83,-17.65 6.29,-25.47 15.71,-42.31 14.25,-25.48 52.84,-60.57 72.95,-80.68l13.75 -14.47c8.7,-7.28 7.49,-4.15 12.36,5.21 8.06,15.46 10.2,25.7 22.45,40.27 7.06,8.4 11.65,12.06 21.24,17.94 2.52,1.54 3.52,1.37 5.65,3.76 2.69,-0.77 1.34,-0.05 2.81,-2.07 -11.6,-5.6 -27.75,-18.2 -36.94,-34.18 -6.29,-10.95 -10.35,-19.95 -11.66,-32.79 -1.08,-10.56 -0.44,-6.18 -3.26,-12.87l-13.33 10.87c-1.27,1.27 -0.58,1.48 -2.47,3.09 -1.23,1.05 -0.44,0.22 -1.43,0.93l-2.73 2.69c-5.12,5.96 -3.92,-0.39 -10.34,-0.53 0.51,-2.75 1.26,-3.69 1.63,-6.37 -3,1.36 0.16,1.7 -5.35,1.76 -1.87,0.02 -4.43,-0.3 -5.37,-1.25 -3.65,-3.66 2.08,-1.17 -1.03,-4.62 -0.12,-0.14 -0.75,-2.24 -3.75,0.95 -0.11,-4.64 -0.99,-2.56 -2.41,-5.74 -1.74,-3.86 0.08,-1.23 1.22,-4.21 -2.97,-0.41 -3.65,-1.3 -4.46,-1.89 0.91,-3.83 0.43,-1.64 2.4,-3.23 1.07,-0.86 1.18,0.41 2.87,-3.69 1.61,-3.89 4.14,-3.17 11.29,-11.85 2.67,-3.24 3.16,-2.05 5.56,-4.65l21.45 -21.69c4.25,-5.16 -0.31,-0.85 7.09,-7l14.16 -14.86c1.69,-1.85 2.99,-2.97 4.67,-4.75 1.78,-1.89 2.25,-2.69 4.09,-5.28 5.68,-8.03 3.64,-3.62 9,-10.66 1.74,-2.29 2.91,-3.06 4.44,-4.93l16.67 -21.79c6.81,-9.69 9.17,-14.45 14.94,-23.5 11.15,-17.49 9.17,-20.05 15.87,-31.83l6.83 15.8c9.99,18.8 3.54,8.64 14.48,24.79 1.34,-1.02 1.33,1.54 0.99,-1.79 -10.43,-17.36 -12.91,-21.31 -19.7,-39.01 -1.04,-2.7 -1.14,-3.82 -4.52,-4.1 -1.55,6.65 -9.42,24.52 -13.17,30.73l-17.08 27.6c-9.63,13.94 -24.31,29.74 -35.04,42.56 -10.07,12.03 -49.2,49.76 -61.49,61.59 -2.23,2.15 -3.62,2.77 -5.9,5.07 -6.63,6.66 -23.93,22.03 -28.02,28.5z"/>
    <path class="fil2" d="M399.41 386.77c-2.05,3.99 -22.23,23.12 -29.6,31.51 -5.4,6.16 -5.06,3.39 -11.04,10.9 -1.28,1.6 -2.36,2.52 -3.84,4 -25.92,25.77 -40.94,49.13 -76.03,42.71 -5.72,-1.05 -11.05,-3.76 -15.71,-7.02 -1.98,-1.39 -2.47,-2.1 -5.66,-2.18 -0.09,3.91 -1.36,9.31 -1.58,13.33 -0.76,14.35 1.59,27.75 5.79,40.47 2.65,8.02 15.84,34.55 26.36,34.79 1.86,-3.52 2.96,-7.18 4.87,-10.81 1.12,-2.12 1.37,-3.24 2.44,-5.4l8.35 -15.16c4.56,-6.86 8.15,-10.67 13.09,-19.05 2,-3.4 4.29,-6.81 6.75,-9.72 2.33,-2.75 5.2,-5.26 7.81,-7.87 1.43,-1.42 2.61,-2.44 3.91,-3.92 7.53,-8.55 10.37,-11.86 20.53,-19.46 22.09,-16.5 11.93,-9.75 38.52,-25.75 16.92,-10.19 24.4,-13.29 42.44,-21.06 13.93,-5.99 18.46,-8.41 33.6,-14.21l55.48 -24.48c12.22,-5.81 19.11,-10.59 29.99,-17.84 7.35,-4.9 24.34,-14.67 26.18,-22.67 -0.88,0.55 -1.88,1.07 -3.07,1.96 -2.33,1.74 -0.49,0.26 -2.27,2.3l-24.58 19.34c-27.23,16.02 -54,28.26 -83.42,39.54l-55.89 23.98c-10.25,4.82 -8.26,-1.81 -14.2,7.21 -1.85,-0.21 0.43,-0.76 -1.68,-0.44 -1.76,0.27 -1.61,1.38 -5.92,4.08 -2.59,1.62 -3.44,0.99 -9.34,2.99 0.78,-1.77 -0.17,0.13 2.73,-2.76 0.12,-0.11 0.27,-0.29 0.39,-0.41 2.99,-2.94 3.95,-1.63 4.19,-4.89l-5.75 -0.44 -0.02 -4.69c-3.28,-0.99 0.39,0.07 -3.84,-2.53l-2.43 -1.11c1.62,-1.28 1.13,-1.49 3.17,-2.09 -0.95,-2.42 -0.07,-1.37 -4.67,-3.03l10.8 -10.22c1.11,-2.9 9.02,-10.06 12.99,-14.73 4.6,-5.4 0.16,-5.17 0.16,-5.17z"/>
   </g>
   <rect class="fil3 str0" x="-6.11" width="3645.4" height="846.7"/>
  </g>
 </g>
</svg>
